<?xml version="1.0" encoding="iso-8859-1"?>
<!-- Generator: Adobe Illustrator 23.0.1, SVG Export Plug-In . SVG Version: 6.00 Build 0)  -->
<svg version="1.1" id="&#x421;&#x43B;&#x43E;&#x439;_1"
	xmlns="http://www.w3.org/2000/svg" xmlns:xlink="http://www.w3.org/1999/xlink" x="0px" y="0px" viewBox="0 0 344.434 512"
	style="enable-background:new 0 0 344.434 512;" xml:space="preserve" fill="#ee0808" width="21" height="30">
	<g>
		<rect x="157.219" width="30" height="65.895"/>
		<path d="M48.172,22.18l26.34-14.36l32.851,60.266l-26.34,14.359L48.172,22.18z M48.172,22.18"/>
		<path d="M237.07,68.105L269.922,7.84l26.34,14.359L263.41,82.465L237.07,68.105z M237.07,68.105"/>
		<path d="M344.434,452l-34.973-89.918v-119.43c0-75.675-61.566-137.242-137.242-137.242c-75.68,0-137.246,61.567-137.246,137.242
			v119.43L0,452h114.992v2.777c0,31.551,25.672,57.223,57.227,57.223c31.551,0,57.222-25.672,57.222-57.223V452H344.434z
			M64.973,242.652c0-59.132,48.109-107.242,107.246-107.242c59.133,0,107.242,48.11,107.242,107.242v107.246H64.973V242.652z
			M60.234,379.898h223.965L300.574,422H43.859L60.234,379.898z M199.441,454.777c0,15.012-12.214,27.223-27.222,27.223
			c-15.012,0-27.227-12.211-27.227-27.223V452h54.446v2.777H199.441z M199.441,454.777"/>
		</g>
	</svg>
