<?xml version="1.0" encoding="iso-8859-1"?>
<!-- Generator: Adobe Illustrator 23.0.2, SVG Export Plug-In . SVG Version: 6.00 Build 0)  -->
<svg version="1.1" id="Capa_1" xmlns="http://www.w3.org/2000/svg" xmlns:xlink="http://www.w3.org/1999/xlink" x="0px" y="0px"
	 viewBox="-49 141 512 512" style="enable-background:new -49 141 512 512;" xml:space="preserve" fill="#ee0808">
<path d="M107,531.002c5.52,0,10-4.48,10-10s-4.48-10-10-10s-10,4.48-10,10S101.48,531.002,107,531.002z"/>
<path d="M14.408,332.552l-38.144,63.575c-1.561,2.601-1.856,5.77-0.804,8.615s3.339,5.058,6.217,6.017L37,429.199v153.802
	c0,4.168,2.586,7.899,6.489,9.363c33.827,12.684,159.512,59.822,160.187,60.061c1.984,0.699,4.219,0.794,6.398,0.089
	c0.029-0.01,0.059-0.016,0.088-0.026l180-60c4.083-1.361,6.838-5.183,6.838-9.487v-157.92l58.998-18.54
	c3.336-1.048,5.882-3.762,6.715-7.158c0.832-3.396-0.169-6.98-2.641-9.453l-58.929-58.929l58.929-58.929
	c2.479-2.479,3.478-6.075,2.635-9.477c-0.843-3.403-3.407-6.115-6.757-7.149l-143.499-44.29
	c-12.936-41.581-51.384-70.154-95.451-70.154c-40.964,0-77.6,24.965-92.763,62.625l-166.214,51.828
	c-3.341,1.042-5.895,3.756-6.732,7.155c-0.837,3.398,0.163,6.988,2.638,9.463L14.408,332.552z M31.448,343.025l160.563,53.521
	l-31.619,52.702c-17.145-5.715-142.258-47.42-160.564-53.521L31.448,343.025z M139.418,304.073
	c18.91,23.247,47.377,36.929,77.582,36.929c27.942,0,54.203-11.499,73.092-31.759l65.284,21.759L207,380.461L58.624,331.003
	L139.418,304.073z M57,435.866c110.15,36.522,104.771,35.407,107.838,35.407c3.438,0,6.73-1.779,8.577-4.856L197,427.106v201.466
	l-140-52.5V435.866z M377,575.794l-160,53.333v-209.62l35.451,44.31c2.579,3.223,6.872,4.529,10.807,3.293L377,431.367V575.794z
	 M434.263,392.407l-170.471,53.572l-40.024-50.026l160.531-53.51L434.263,392.407z M384.299,319.56l-81.528-27.173
	C312.003,276.956,317,259.15,317,241.002c0-2.541-0.107-5.076-0.298-7.603l117.494,36.265L384.299,319.56z M217,161.002
	c36.801,0,68.719,24.892,77.618,60.532c1.581,6.333,2.382,12.883,2.382,19.468c0,18.574-6.164,35.983-17.828,50.352
	c-15.277,18.842-37.938,29.648-62.172,29.648c-26.196,0-50.767-12.858-65.733-34.404C141.934,273.192,137,257.424,137,241.002
	c0-8.931,1.455-17.688,4.327-26.028C152.428,182.692,182.839,161.002,217,161.002z M118.065,226.501
	c-0.694,4.778-1.065,9.618-1.065,14.5c0,16.101,3.814,31.696,11.084,45.767L29.701,319.56l-49.936-49.935L118.065,226.501z"/>
<path d="M141.249,543.585l22.24,8.34c5.182,1.942,10.939-0.69,12.875-5.852c1.939-5.171-0.681-10.936-5.852-12.875l-22.24-8.34
	c-5.171-1.938-10.935,0.681-12.875,5.852C133.458,535.882,136.078,541.646,141.249,543.585z"/>
<path d="M170.511,575.918l-60-22.5c-5.171-1.939-10.935,0.681-12.875,5.852c-1.94,5.171,0.681,10.936,5.852,12.875l60,22.5
	c1.157,0.434,2.343,0.64,3.51,0.64c4.049,0,7.859-2.477,9.365-6.492C178.303,583.621,175.683,577.857,170.511,575.918z"/>
<path d="M199.929,278.073c3.905,3.905,10.237,3.905,14.143,0l60-60c3.905-3.905,3.905-10.237,0-14.143
	c-3.905-3.906-10.237-3.905-14.143,0L207,256.86l-12.929-12.929c-3.905-3.905-10.237-3.905-14.143,0s-3.905,10.237,0,14.143
	L199.929,278.073z"/>
</svg>
