<?xml version="1.0" encoding="utf-8"?>
<!-- Generator: Adobe Illustrator 23.0.2, SVG Export Plug-In . SVG Version: 6.00 Build 0)  -->
<svg version="1.1" id="Слой_1" xmlns="http://www.w3.org/2000/svg" xmlns:xlink="http://www.w3.org/1999/xlink" x="0px" y="0px"
	viewBox="0 0 315.8 388.8" style="enable-background:new 0 0 315.8 388.8;" xml:space="preserve" fill="#ee0808">
	<style type="text/css">
		.st0{clip-path:url(#SVGID_2_);}
		.st1{clip-path:url(#SVGID_4_);}
	</style>
	<g>
		<g>
			<g>
				<defs>
					<rect id="SVGID_1_" width="315.8" height="388.8"/>
				</defs>
				<clipPath id="SVGID_2_">
					<use xlink:href="#SVGID_1_"  style="overflow:visible;"/>
				</clipPath>
				<path class="st0" d="M96.2,158.3c0-5.3-4.3-9.6-9.6-9.6h-77c-5.3,0-9.6,4.3-9.6,9.6s4.3,9.6,9.6,9.6h77
					C91.8,167.9,96.2,163.6,96.2,158.3L96.2,158.3z"/>
				</g>
				<g>
					<defs>
						<rect id="SVGID_3_" width="315.8" height="388.8"/>
					</defs>
					<clipPath id="SVGID_4_">
						<use xlink:href="#SVGID_3_"  style="overflow:visible;"/>
					</clipPath>
					<path class="st1" d="M306.4,148.7h-77c-5.3,0-9.6,4.3-9.6,9.6s4.3,9.6,9.6,9.6h77c5.3,0,9.6-4.3,9.6-9.6S311.8,148.7,306.4,148.7
						L306.4,148.7z"/>
					</g>
				</g>
				<path d="M158,96.5c5.3,0,9.6-4.3,9.6-9.6v-77c0-5.3-4.3-9.6-9.6-9.6s-9.6,4.3-9.6,9.6v77C148.4,92.2,152.7,96.5,158,96.5L158,96.5z
					"/>
					<path d="M208.5,117.4c2.5,0,4.9-1,6.8-2.8l54.5-54.5c3.8-3.8,3.8-9.8,0-13.6c-3.8-3.8-9.8-3.8-13.6,0L201.7,101
						c-3.8,3.8-3.8,9.8,0,13.6C203.6,116.5,206.1,117.4,208.5,117.4L208.5,117.4z"/>
						<path d="M100.7,114.6c1.8,1.8,4.3,2.8,6.8,2.8c2.5,0,4.9-1,6.8-2.8c3.8-3.8,3.8-9.8,0-13.6L59.8,46.6c-3.8-3.8-9.8-3.8-13.6,0
							c-3.8,3.8-3.8,9.8,0,13.6L100.7,114.6z"/>
							<path d="M273.4,218.9c-7.3-6.2-16.5-9.7-25.8-9.7h-55v-38.8c0-18.6-5.5-32.1-16.5-40.2c-17.3-12.6-40.7-5.5-41.8-5.2
								c-4,1.3-6.7,5-6.7,9.1V181c0,14.2-6.8,26.3-20.3,36c-10.2,7.4-20.7,10.7-22.1,11.1l-1,0.2c-3.6-4.1-8.9-6.6-14.8-6.6H33
								c-10.9,0-19.8,8.9-19.8,19.8v119.7c0,10.9,8.9,19.8,19.8,19.8h36.6c4.8,0,9.3-1.8,12.6-4.6c7.4,7.2,17.4,11.6,28.2,11.6H225
								c11.5,0,21.7-2.8,29.4-8c9.9-6.7,16.1-17.4,17.8-31l14.8-92C289.4,242.6,284.2,228.1,273.4,218.9L273.4,218.9z M70.2,361.1
								c0,0.3-0.2,0.6-0.6,0.6H33c-0.3,0-0.6-0.2-0.6-0.6V241.4c0-0.3,0.2-0.6,0.6-0.6h36.6c0.3,0,0.6,0.2,0.6,0.6L70.2,361.1L70.2,361.1z
								M268.2,253.9l-14.8,92.2c0,0.1,0,0.2-0.1,0.4c-0.6,5.5-2.7,22.2-28.2,22.2H110.4c-10.2,0-19.2-7.7-20.8-17.8
								c-0.1-0.4-0.2-0.8-0.2-1.1V246.9l0.6-0.2c0.2,0,0.2-0.1,0.4-0.1c0.6-0.2,14.2-4,27.7-13.7c18.8-13.4,28.8-31.4,28.8-52v-38.9
								c5.3-0.6,12.6-0.3,17.9,3.6c5.8,4.2,8.6,12.6,8.6,24.6v48.4c0,5.3,4.3,9.6,9.6,9.6h64.6c4.8,0,9.5,1.8,13.4,5
								C266.6,238.3,269.4,246.2,268.2,253.9L268.2,253.9z"/>
							</g>
						</svg>
