<?xml version="1.0" encoding="iso-8859-1"?>
<!-- Generator: Adobe Illustrator 23.0.2, SVG Export Plug-In . SVG Version: 6.00 Build 0)  -->
<svg version="1.1" id="Capa_1" xmlns="http://www.w3.org/2000/svg" xmlns:xlink="http://www.w3.org/1999/xlink" x="0px" y="0px"
	viewBox="-49 141 512 512" style="enable-background:new -49 141 512 512;" xml:space="preserve" fill="#ee0808">
	<path d="M147,221c5.52,0,10-4.48,10-10s-4.48-10-10-10s-10,4.48-10,10S141.48,221,147,221z"/>
	<path d="M207,321c-4.272,0-8.884-2.687-12.985-7.565c-3.553-4.228-9.862-4.773-14.089-1.219c-4.228,3.554-4.773,9.862-1.22,14.089
		c5.346,6.359,11.632,10.79,18.294,13.024V351c0,5.523,4.478,10,10,10s10-4.477,10-10v-11.72c11.639-4.128,20-15.243,20-28.28
		c0-16.542-13.458-30-30-30c-5.514,0-10-4.486-10-10s4.486-10,10-10c3.542,0,7.282,1.807,10.815,5.227
		c3.971,3.841,10.3,3.736,14.141-0.232c3.84-3.969,3.736-10.3-0.232-14.141c-5.075-4.911-10.153-7.689-14.724-9.205V231
		c0-5.523-4.478-10-10-10s-10,4.477-10,10v11.72c-11.639,4.128-20,15.243-20,28.28c0,16.542,13.458,30,30,30c5.514,0,10,4.486,10,10
		S212.514,321,207,321z"/>
		<path d="M423,287c-22.056,0-40,17.944-40,40v71.27c-13.284-3.421-27.943,0.112-38.281,10.449l-67.065,67.065
			C268.204,485.221,263,497.781,263,511.15V570h-10c-5.522,0-10,4.477-10,10v63c0,5.523,4.478,10,10,10h140c5.522,0,10-4.477,10-10
			v-63c0-5.523-4.478-10-10-10h-10v-4.72c0-2.629,1.068-5.206,2.932-7.069l62.42-62.42C457.798,486.344,463,473.786,463,460.43V327
			C463,304.944,445.056,287,423,287z M383,633H263v-43h120V633z M443,460.43c0,8.014-3.122,15.55-8.791,21.219l-62.42,62.42
			c-5.586,5.586-8.789,13.317-8.789,21.211V570h-80v-58.85c0-8.022,3.12-15.556,8.791-21.219l67.07-67.07
			c7.506-7.507,19.564-7.844,27.45-0.768c0.057,0.05,0.114,0.101,0.172,0.15c0.228,0.195,0.442,0.405,0.658,0.621
			C390.919,426.639,393,431.659,393,437s-2.081,10.361-5.861,14.139l-49.69,49.69c-3.905,3.905-3.905,10.237,0,14.143
			c3.906,3.905,10.236,3.906,14.143,0l49.688-49.687C408.837,457.731,413,447.687,413,437c0-9.84-3.538-19.132-10-26.44V327
			c0-11.028,8.972-20,20-20s20,8.972,20,20V460.43z"/>
			<path d="M161,570h-10v-58.85c0-13.369-5.204-25.929-14.648-35.361l-67.07-67.07C58.943,398.38,44.284,394.848,31,398.27V327
				c0-22.056-17.944-40-40-40s-40,17.944-40,40v133.43c0,13.356,5.202,25.914,14.648,35.361l62.42,62.419
				c1.864,1.864,2.932,4.44,2.932,7.07V570H21c-5.522,0-10,4.477-10,10v63c0,5.523,4.478,10,10,10h140c5.522,0,10-4.477,10-10v-63
				C171,574.477,166.522,570,161,570z M42.211,544.069l-62.42-62.419C-25.878,475.98-29,468.444-29,460.43V327c0-11.028,8.972-20,20-20
				s20,8.972,20,20v83.559C4.538,417.867,1,427.158,1,437c0,10.687,4.163,20.731,11.719,28.281l50,50
				c3.906,3.905,10.236,3.905,14.143,0c3.905-3.905,3.905-10.237,0-14.143l-50.003-50.003C23.081,447.361,21,442.341,21,437
				s2.081-10.361,5.856-14.135c0.218-0.217,0.433-0.427,0.66-0.622l0.172-0.15c7.885-7.076,19.944-6.738,27.45,0.768l67.075,67.074
				c5.666,5.659,8.786,13.192,8.786,21.214V570h-80v-4.72C51,557.386,47.797,549.655,42.211,544.069z M151,633H31v-43h120V633z"/>
				<path d="M357,291c0-82.71-67.29-150-150-150S57,208.29,57,291s67.29,150,150,150S357,373.71,357,291z M207,421
					c-71.683,0-130-58.318-130-130s58.317-130,130-130s130,58.318,130,130S278.683,421,207,421z"/>
					<path d="M276.054,205.369c-26.021-21.01-60.077-28.934-93.421-21.745c-5.399,1.164-8.832,6.484-7.668,11.883
						c1.164,5.398,6.485,8.828,11.883,7.667c27.409-5.91,55.345,0.561,76.643,17.755C284.786,238.124,297,263.663,297,291
						c0,49.626-40.374,90-90,90s-90-40.374-90-90c0-14.824,3.68-29.518,10.642-42.492c2.611-4.866,0.783-10.928-4.083-13.54
						c-4.867-2.612-10.93-0.783-13.54,4.083C101.502,254.924,97,272.887,97,291c0,60.654,49.346,110,110,110s110-49.346,110-110
						C317,257.589,302.076,226.378,276.054,205.369z"/>
					</svg>
