<?xml version="1.0" encoding="iso-8859-1"?>
<!-- Generator: Adobe Illustrator 23.0.2, SVG Export Plug-In . SVG Version: 6.00 Build 0)  -->
<svg version="1.1" id="Capa_1" xmlns="http://www.w3.org/2000/svg" xmlns:xlink="http://www.w3.org/1999/xlink" x="0px" y="0px"
	viewBox="-49 141 512 512" style="enable-background:new -49 141 512 512;" xml:space="preserve" fill="#ee0808">
	<path d="M322.16,191.881c4.787,2.774,10.915,1.132,13.679-3.665c2.764-4.787,1.122-10.905-3.665-13.679
		c-4.787-2.764-10.915-1.122-13.679,3.665C315.731,182.998,317.373,189.117,322.16,191.881z"/>
		<path d="M207,161.028c5.528,0,10.014-4.486,10.014-10.014S212.528,141,207,141c-5.528,0-10.014,4.486-10.014,10.014
			S201.472,161.028,207,161.028z"/>
			<path d="M207,427.397c5.528,0,10.014-4.486,10.014-10.014s-4.486-10.014-10.014-10.014c-5.528,0-10.014,4.486-10.014,10.014
				S201.472,427.397,207,427.397z"/>
				<path d="M91.84,191.881c4.787-2.764,6.429-8.882,3.665-13.679c-2.764-4.787-8.892-6.429-13.679-3.665
					c-4.787,2.774-6.429,8.892-3.665,13.679C80.925,193.012,87.054,194.654,91.84,191.881z"/>
					<path d="M207,241.139c5.53,0,10.014-4.483,10.014-10.014v-40.056c0-5.531-4.484-10.014-10.014-10.014
						c-5.53,0-10.014,4.483-10.014,10.014v40.056C196.986,236.656,201.47,241.139,207,241.139z"/>
						<path d="M118.216,257.601c1.856,3.213,5.221,5.009,8.683,5.009c1.697,0,3.42-0.433,4.996-1.343c4.79-2.765,6.432-8.888,3.667-13.679
							l-20.028-34.698c-2.766-4.79-8.889-6.435-13.679-3.667c-4.79,2.765-6.432,8.888-3.667,13.679L118.216,257.601z"/>
							<path d="M282.105,261.268c1.577,0.91,3.298,1.343,4.996,1.343c3.462,0,6.827-1.797,8.683-5.009l20.028-34.698
								c2.765-4.79,1.123-10.914-3.667-13.679c-4.793-2.766-10.914-1.124-13.679,3.667l-20.028,34.698
								C275.673,252.378,277.316,258.503,282.105,261.268z"/>
								<path d="M417.289,417.315c-0.001-0.123-0.008-0.245-0.014-0.369c-0.006-0.128-0.014-0.256-0.024-0.385
									c-0.007-0.082-0.008-0.165-0.017-0.246c-0.012-0.112-0.032-0.224-0.047-0.335c-0.018-0.125-0.039-0.25-0.061-0.376
									c-0.017-0.094-0.028-0.189-0.048-0.282c-0.02-0.093-0.047-0.185-0.069-0.278c-0.031-0.128-0.065-0.256-0.101-0.384
									c-0.029-0.103-0.054-0.208-0.086-0.31c-0.023-0.072-0.053-0.143-0.078-0.215c-0.047-0.136-0.097-0.271-0.149-0.406
									c-0.042-0.107-0.081-0.215-0.126-0.32c-0.024-0.055-0.053-0.109-0.078-0.164c-0.064-0.141-0.132-0.279-0.202-0.418
									c-0.054-0.106-0.106-0.212-0.164-0.315c-0.01-0.018-0.017-0.036-0.027-0.054L355.993,306.31c-0.03-0.053-0.068-0.098-0.099-0.15
									c-0.167-0.285-0.349-0.562-0.545-0.829c-0.051-0.07-0.1-0.141-0.152-0.21c-0.249-0.323-0.516-0.636-0.805-0.928
									c-0.004-0.004-0.009-0.008-0.014-0.013c-0.274-0.276-0.571-0.533-0.879-0.778c-0.077-0.061-0.155-0.118-0.233-0.176
									c-0.248-0.185-0.508-0.359-0.777-0.524c-0.087-0.053-0.172-0.109-0.261-0.159c-0.341-0.194-0.693-0.375-1.063-0.531
									c-0.004-0.002-0.008-0.004-0.013-0.006c-0.001-0.001-0.003-0.001-0.004-0.002c-0.373-0.156-0.75-0.28-1.129-0.389
									c-0.106-0.03-0.213-0.053-0.32-0.08c-0.298-0.075-0.597-0.135-0.897-0.182c-0.107-0.016-0.212-0.034-0.32-0.047
									c-0.401-0.049-0.802-0.08-1.201-0.08c-0.001,0-0.002,0-0.004,0h-0.002c-0.017,0-0.033,0-0.05,0H207h-0.026H66.822
									c-0.415-0.001-0.83,0.031-1.247,0.082c-0.097,0.012-0.192,0.029-0.288,0.044c-0.303,0.047-0.606,0.108-0.908,0.184
									c-0.112,0.028-0.223,0.054-0.333,0.086c-0.327,0.094-0.652,0.206-0.974,0.335c-0.054,0.022-0.109,0.037-0.163,0.06
									c-0.009,0.004-0.019,0.006-0.028,0.01c-0.361,0.154-0.706,0.332-1.039,0.523c-0.084,0.048-0.163,0.102-0.245,0.152
									c-0.27,0.164-0.53,0.339-0.779,0.526c-0.082,0.061-0.163,0.123-0.244,0.187c-0.278,0.221-0.544,0.455-0.794,0.702
									c-0.033,0.032-0.068,0.061-0.1,0.094c-0.287,0.291-0.554,0.6-0.801,0.922c-0.047,0.061-0.089,0.126-0.135,0.188
									c-0.197,0.269-0.381,0.548-0.549,0.835c-0.03,0.052-0.068,0.097-0.098,0.149L-1.869,412.233c-0.002,0.003-0.003,0.005-0.005,0.008
									l-0.119,0.209c-0.01,0.018-0.017,0.037-0.028,0.055c-0.062,0.111-0.118,0.225-0.176,0.339c-0.072,0.141-0.142,0.282-0.207,0.427
									c-0.02,0.044-0.042,0.088-0.062,0.132c-0.049,0.113-0.091,0.229-0.136,0.345c-0.054,0.138-0.106,0.276-0.154,0.417
									c-0.021,0.06-0.045,0.12-0.064,0.18c-0.035,0.11-0.061,0.223-0.093,0.335c-0.037,0.132-0.074,0.264-0.105,0.399
									c-0.019,0.08-0.042,0.159-0.059,0.239c-0.021,0.101-0.034,0.205-0.052,0.307c-0.023,0.13-0.046,0.26-0.064,0.393
									c-0.013,0.098-0.03,0.196-0.04,0.294c-0.01,0.09-0.011,0.181-0.019,0.271c-0.011,0.133-0.021,0.265-0.026,0.399
									c-0.004,0.11-0.01,0.22-0.011,0.33c0,0.023-0.003,0.046-0.003,0.069c0,0.062,0.008,0.123,0.009,0.185
									c0.002,0.132,0.007,0.264,0.014,0.397c0.006,0.109,0.012,0.218,0.022,0.327c0.008,0.093,0.019,0.184,0.03,0.276
									c0.015,0.126,0.033,0.251,0.053,0.377c0.016,0.099,0.031,0.198,0.05,0.296c0.019,0.102,0.039,0.203,0.062,0.304
									c0.027,0.121,0.058,0.24,0.089,0.361c0.023,0.089,0.047,0.178,0.072,0.267c0.031,0.107,0.062,0.213,0.096,0.319
									c0.037,0.114,0.079,0.226,0.12,0.339c0.032,0.087,0.065,0.174,0.099,0.261c0.042,0.104,0.083,0.208,0.128,0.311
									c0.045,0.104,0.095,0.206,0.144,0.308c0.045,0.093,0.091,0.185,0.138,0.277c0.051,0.097,0.101,0.194,0.155,0.29
									c0.051,0.091,0.104,0.18,0.158,0.27c0.06,0.1,0.123,0.199,0.187,0.297c0.059,0.091,0.12,0.18,0.182,0.269
									c0.055,0.078,0.109,0.156,0.167,0.234c0.074,0.1,0.15,0.197,0.228,0.295c0.071,0.088,0.145,0.173,0.218,0.259
									c0.042,0.049,0.077,0.101,0.121,0.15L200.781,649.66c0.247,0.277,0.511,0.538,0.785,0.783c0.04,0.035,0.083,0.065,0.123,0.1
									c0.289,0.251,0.592,0.482,0.905,0.697c0.102,0.07,0.206,0.136,0.31,0.202c0.292,0.184,0.592,0.352,0.9,0.506
									c0.085,0.042,0.166,0.089,0.252,0.129c0.389,0.179,0.788,0.332,1.198,0.461c0.098,0.031,0.198,0.053,0.297,0.08
									c0.329,0.092,0.663,0.167,1.001,0.226c0.124,0.021,0.247,0.043,0.373,0.06c0.437,0.058,0.876,0.098,1.323,0.098
									c0.011,0,0.021,0,0.031,0c0.448-0.001,0.889-0.043,1.327-0.103c0.125-0.017,0.247-0.039,0.372-0.061
									c0.339-0.06,0.675-0.136,1.005-0.23c0.099-0.028,0.199-0.05,0.297-0.082c0.41-0.13,0.81-0.286,1.2-0.468
									c0.085-0.04,0.166-0.087,0.25-0.129c0.309-0.155,0.61-0.326,0.902-0.513c0.105-0.067,0.208-0.134,0.311-0.205
									c0.31-0.215,0.61-0.446,0.896-0.696c0.043-0.038,0.09-0.071,0.133-0.109c0.274-0.249,0.538-0.512,0.786-0.793L414.787,424.01
									c0.036-0.041,0.065-0.085,0.1-0.126c0.066-0.077,0.132-0.155,0.196-0.234c0.086-0.107,0.168-0.215,0.249-0.325
									c0.056-0.076,0.111-0.152,0.165-0.229c0.056-0.08,0.11-0.162,0.164-0.244c0.07-0.107,0.136-0.215,0.202-0.324
									c0.054-0.09,0.108-0.178,0.159-0.269c0.048-0.087,0.093-0.175,0.139-0.264c0.051-0.099,0.1-0.2,0.148-0.301
									c0.05-0.104,0.101-0.207,0.147-0.312c0.041-0.094,0.077-0.189,0.115-0.284c0.037-0.093,0.072-0.187,0.106-0.282
									c0.042-0.115,0.086-0.23,0.124-0.346c0.031-0.096,0.057-0.193,0.086-0.29c0.028-0.096,0.052-0.193,0.077-0.29
									c0.031-0.122,0.065-0.243,0.091-0.367c0.02-0.091,0.037-0.183,0.054-0.276c0.02-0.107,0.036-0.215,0.053-0.323
									c0.019-0.126,0.039-0.251,0.054-0.378c0.01-0.082,0.019-0.165,0.026-0.248c0.011-0.12,0.016-0.24,0.023-0.361
									c0.007-0.129,0.013-0.258,0.015-0.387c0.001-0.054,0.008-0.107,0.008-0.161C417.292,417.36,417.289,417.338,417.289,417.315z
									M65.54,333.8l31.368,73.569h-73.01L65.54,333.8z M390.114,407.369h-72.268l30.767-73.418L390.114,407.369z M166.944,407.369
									h-32.656l72.751-81.174l73.519,81.174h-33.502c-5.53,0-10.014,4.483-10.014,10.014s4.484,10.014,10.014,10.014h40.683
									l-79.567,189.87l-80.956-189.87h39.729c5.53,0,10.014-4.483,10.014-10.014S172.474,407.369,166.944,407.369z M299.753,398.728
									L229.58,321.25h102.64L299.753,398.728z M115.04,398.836L81.962,321.25h102.616L115.04,398.836z M105.443,427.397l69.721,163.517
									L29.095,427.397H105.443z M309.454,427.397h75.636L241.016,590.71L309.454,427.397z"/>
								</svg>
