<?xml version="1.0" encoding="utf-8"?>
<!-- Generator: Adobe Illustrator 23.0.2, SVG Export Plug-In . SVG Version: 6.00 Build 0)  -->
<svg version="1.1" id="Слой_1" xmlns="http://www.w3.org/2000/svg" xmlns:xlink="http://www.w3.org/1999/xlink" x="0px" y="0px"
	viewBox="0 0 409.6 409.6" style="enable-background:new 0 0 409.6 409.6;" xml:space="preserve" fill="#ee0808">
	<style type="text/css">
		.st0{font-family:'MyriadPro-Regular';}
		.st1{font-size:12px;}
	</style>
	<g>
		<path d="M238.9,163.8c-3.8,0-6.8,3.1-6.8,6.8c0,3.8,3.1,6.8,6.8,6.8v11.4c-4.8,6.9-10.3,13-15.7,18.9
			c-9.9,10.8-18.5,20.2-18.5,31.2c0,8.9,5.7,16.4,13.7,19.2v42.2h-47.8c-3.8,0-6.8,3.1-6.8,6.8c0,3.8,3.1,6.8,6.8,6.8h54.6
			c3.8,0,6.8-3.1,6.8-6.8v-47.8h27.3v6.8c0,3.8,3.1,6.8,6.8,6.8c3.8,0,6.8-3.1,6.8-6.8v-8.1c7.9-2.8,13.7-10.3,13.7-19.2
			c0-11-8.6-20.3-18.5-31.2c-5.4-5.9-10.9-12-15.7-18.9v-11.4c3.8,0,6.8-3.1,6.8-6.8c0-3.8-3.1-6.8-6.8-6.8c0-3.8-3.1-6.8-6.8-6.8
			C242,157,238.9,160.1,238.9,163.8L238.9,163.8z M258.2,217c7.7,8.4,14.9,16.3,14.9,21.9c0,3.8-3.1,6.8-6.8,6.8h-41
			c-3.8,0-6.8-3.1-6.8-6.8c0-5.7,7.2-13.6,14.9-21.9c4-4.3,8.3-9.1,12.4-14.3C249.9,207.9,254.2,212.7,258.2,217L258.2,217z"/>
			<path d="M402.8,395.9h-34.1v-47.8c0-3.8-3.1-6.8-6.8-6.8H355v-88.7c0-3.8-3.1-6.8-6.8-6.8h-6.8v-28.6c7.9-2.8,13.7-10.3,13.7-19.2
				c0-11-8.6-20.3-18.5-31.2c-5.4-5.9-10.9-12-15.7-18.9v-11.4c3.8,0,6.8-3.1,6.8-6.8c0-3.8-3.1-6.8-6.8-6.8c0-3.8-3.1-6.8-6.8-6.8
				c-3.8,0-6.8,3.1-6.8,6.8c-3.8,0-6.8,3.1-6.8,6.8c0,3.8,3.1,6.8,6.8,6.8v11.4c-4.8,6.9-10.3,13-15.7,18.9
				c-9.9,10.8-18.5,20.2-18.5,31.2c0,11.3,9.2,20.5,20.5,20.5h34.1v27.3h-27.3c-3.8,0-6.8,3.1-6.8,6.8c0,3.8,3.1,6.8,6.8,6.8h41v88.7
				c0,3.8,3.1,6.8,6.8,6.8h6.8v41h-27.3v-61.4c0-3.8-3.1-6.8-6.8-6.8c-3.8,0-6.8,3.1-6.8,6.8v6.8h-15.8l-18.8-50.2
				c-1-2.7-3.6-4.4-6.4-4.4c-2.8,0-5.4,1.8-6.4,4.4l-18.8,50.2h-15.8v-6.8c0-3.8-3.1-6.8-6.8-6.8c-3.8,0-6.8,3.1-6.8,6.8v61.4H41v-41
				h6.8c3.8,0,6.8-3.1,6.8-6.8v-13.7c0-3.8-3.1-6.8-6.8-6.8c-3.8,0-6.8-3.1-6.8-6.8c0-5.7,7.2-13.6,14.9-21.9c2.2-2.4,4.5-4.9,6.8-7.6
				c2.5-2.8,2.2-7.2-0.7-9.6c-2.8-2.5-7.2-2.2-9.6,0.7c-2.2,2.6-4.5,5-6.6,7.3c-9.9,10.8-18.4,20.2-18.4,31.1
				c0,8.9,5.7,16.5,13.7,19.3v1.2h-6.8c-3.8,0-6.8,3.1-6.8,6.8v47.8H6.8c-3.8,0-6.8,3.1-6.8,6.8c0,3.8,3.1,6.8,6.8,6.8h395.9
				c3.8,0,6.8-3.1,6.8-6.8C409.6,399,406.5,395.9,402.8,395.9L402.8,395.9z M334.5,204.8h-41c-3.8,0-6.8-3.1-6.8-6.8
				c0-5.7,7.2-13.6,14.9-21.9c4-4.3,8.3-9.1,12.4-14.3c4.1,5.2,8.5,9.9,12.4,14.3c7.7,8.4,14.9,16.3,14.9,21.9
				C341.3,201.7,338.3,204.8,334.5,204.8L334.5,204.8z M273.1,313l10.6,28.3h-21.3L273.1,313z M314,395.9h-13.7v-20.5
				c0-3.8-3.1-6.8-6.8-6.8c-3.8,0-6.8,3.1-6.8,6.8v20.5h-27.3v-20.5c0-3.8-3.1-6.8-6.8-6.8c-3.8,0-6.8,3.1-6.8,6.8v20.5h-13.7v-41H314
				L314,395.9L314,395.9z"/>
				<path d="M184.3,136.5c-3.8,0-6.8,3.1-6.8,6.8c0,3.8,3.1,6.8,6.8,6.8h54.6c3.8,0,6.8-3.1,6.8-6.8c0-3.8-3.1-6.8-6.8-6.8h-0.8
					l-5.3-42.4c7.6-3,12.9-10.4,12.9-19c0-7.3-3.7-12.6-8.1-18.9c-6.4-9.3-15.3-22.1-19.3-50.3C217.9,2.5,215,0,211.6,0
					c-3.4,0-6.3,2.5-6.8,5.9c-4,28.3-12.9,41-19.3,50.3c-4.3,6.2-8.1,11.6-8.1,18.9c0,8.6,5.4,16,12.9,19l-5.3,42.4L184.3,136.5
					L184.3,136.5z M198.9,136.5l5.1-41h15.3l5.1,41H198.9z M196.8,64c4.3-6.3,10.1-14.6,14.9-27.9c4.8,13.3,10.5,21.6,14.9,27.9
					c3.7,5.3,5.6,8.3,5.6,11.1c0,3.8-3.1,6.8-6.8,6.8H198c-3.8,0-6.8-3.1-6.8-6.8C191.1,72.2,193.1,69.3,196.8,64L196.8,64z"/>
					<path d="M54.6,237.7v14.9c0,3.8,3.1,6.8,6.8,6.8c3.8,0,6.8-3.1,6.8-6.8v-13.7c3.8,0,6.8-3.1,6.8-6.8c0-3.8-3.1-6.8-6.8-6.8h-6.8
						c-3.8,0-6.8-3.1-6.8-6.8c0-5.7,7.2-13.6,14.9-21.9c4-4.4,8.3-9.1,12.5-14.3c0.1,0.2,0.3,0.4,0.4,0.5c2.3,3,6.6,3.5,9.6,1.2
						c3-2.3,3.5-6.6,1.2-9.6c-1.3-1.7-3-3.8-4.4-5.8V157c3.8,0,6.8-3.1,6.8-6.8c0-3.8-3.1-6.8-6.8-6.8c0-3.8-3.1-6.8-6.8-6.8
						c-3.8,0-6.8,3.1-6.8,6.8c-3.8,0-6.8,3.1-6.8,6.8c0,3.8,3.1,6.8,6.8,6.8v11.4c-4.8,6.9-10.3,13-15.7,18.9
						C49.5,198.1,41,207.5,41,218.5C41,227.3,46.7,234.8,54.6,237.7L54.6,237.7z"/>
						<path d="M102.4,204.8v11.4c-4.8,6.9-10.3,13-15.7,18.9c-9.9,10.8-18.5,20.2-18.5,31.2c0,8.9,5.7,16.4,13.7,19.2v62.7
							c0,3.8,3.1,6.8,6.8,6.8c3.8,0,6.8-3.1,6.8-6.8v-61.4h27.3v61.4c0,3.8,3.1,6.8,6.8,6.8h41c3.8,0,6.8-3.1,6.8-6.8
							c0-3.8-3.1-6.8-6.8-6.8h-34.1v-55.9c7.9-2.8,13.7-10.3,13.7-19.2c0-11-8.6-20.3-18.5-31.2c-5.4-5.9-10.9-12-15.7-18.9v-11.4
							c3.8,0,6.8-3.1,6.8-6.8c0-3.8-3.1-6.8-6.8-6.8c0-3.8-3.1-6.8-6.8-6.8c-3.8,0-6.8,3.1-6.8,6.8c-3.8,0-6.8,3.1-6.8,6.8
							C95.6,201.7,98.6,204.8,102.4,204.8L102.4,204.8z M109.2,230c4.1,5.2,8.4,9.9,12.4,14.3c7.7,8.4,14.9,16.3,14.9,21.9
							c0,3.8-3.1,6.8-6.8,6.8h-41c-3.8,0-6.8-3.1-6.8-6.8c0-5.7,7.2-13.6,14.9-21.9C100.8,240,105.1,235.2,109.2,230L109.2,230z"/>
							<path d="M120.6,179.4c3,2.3,7.3,1.7,9.6-1.3c2.7-3.5,5.8-6.9,9.1-10.5c3.5-3.8,7.2-7.9,11-12.7c4.1,5.2,8.4,9.9,12.4,14.3
								c7.7,8.4,14.9,16.3,14.9,21.9c0,3.8-3.1,6.8-6.8,6.8h-27.3c-3.8,0-6.8,3.1-6.8,6.8c0,3.8,3.1,6.8,6.8,6.8h20.5v68.3
								c0,3.8,3.1,6.8,6.8,6.8c3.8,0,6.8-3.1,6.8-6.8v-69.5c7.9-2.8,13.7-10.3,13.7-19.2c0-11-8.6-20.3-18.5-31.2
								c-5.4-5.9-10.9-12-15.7-18.9v-11.4c3.8,0,6.8-3.1,6.8-6.8c0-3.8-3.1-6.8-6.8-6.8c0-3.8-3.1-6.8-6.8-6.8c-3.8,0-6.8,3.1-6.8,6.8
								c-3.8,0-6.8,3.1-6.8,6.8c0,3.8,3.1,6.8,6.8,6.8v11.5c-4.7,6.7-9.5,12.1-14.2,17.2c-3.5,3.8-6.8,7.4-9.8,11.4
								C117,172.8,117.6,177.1,120.6,179.4L120.6,179.4z"/>
							</g>
							<text transform="matrix(1 0 0 1 306 396)" class="st0 st1">fill=&quot;#ee0808&quot;</text>
						</svg>
